<mxfile host="app.diagrams.net" modified="2024-08-27T05:15:46.468Z" agent="Mozilla/5.0 (Windows NT 10.0; Win64; x64) AppleWebKit/537.36 (KHTML, like Gecko) Chrome/127.0.0.0 Safari/537.36" version="24.0.1" etag="X7XeFmkiIwGiOAgAU8zG" type="github">
  <diagram name="Page-1" id="GKyKzxm8nw-_3SlFQg0d">
    <mxGraphModel>
      <root>
        <mxCell id="0" />
        <mxCell id="1" parent="0" />
      </root>
    </mxGraphModel>
  </diagram>
</mxfile>
